<?xml version="1.0" encoding="UTF-8"?>
<svg id="Camada_2" data-name="Camada 2" xmlns="http://www.w3.org/2000/svg" viewBox="0 0 434.58 371.99">
  <defs>
    <style>
      .cls-1 {
        letter-spacing: 0em;
      }

      .cls-2 {
        letter-spacing: -.06em;
      }

      .cls-3 {
        font-family: Mont-Bold, Mont;
        font-size: 18.95px;
        font-weight: 700;
      }

      .cls-4 {
        letter-spacing: -.03em;
      }

      .cls-5 {
        letter-spacing: -.03em;
      }

      .cls-6 {
        letter-spacing: -.02em;
      }

      .cls-7 {
        letter-spacing: -.02em;
      }

      .cls-8 {
        letter-spacing: -.01em;
      }

      .cls-9 {
        font-family: Mont-Regular, Mont;
        font-size: 22.41px;
      }

      .cls-9, .cls-10 {
        fill: #01a83e;
      }

      .cls-9, .cls-10, .cls-11, .cls-12 {
        stroke: #fff;
        stroke-miterlimit: 10;
      }

      .cls-13 {
        letter-spacing: -.08em;
      }

      .cls-14 {
        letter-spacing: 0em;
      }

      .cls-15 {
        letter-spacing: -.01em;
      }

      .cls-16 {
        font-size: 53.05px;
      }

      .cls-16, .cls-17 {
        font-family: Mont-Heavy, Mont;
        font-weight: 800;
      }

      .cls-18 {
        letter-spacing: -.09em;
      }

      .cls-19 {
        letter-spacing: -.03em;
      }

      .cls-20 {
        letter-spacing: 0em;
      }

      .cls-11 {
        fill: #6b320c;
      }

      .cls-21 {
        letter-spacing: -.03em;
      }

      .cls-22 {
        letter-spacing: -.05em;
      }

      .cls-23 {
        letter-spacing: -.03em;
      }

      .cls-24 {
        letter-spacing: 0em;
      }

      .cls-17 {
        font-size: 59.87px;
      }

      .cls-25 {
        letter-spacing: 0em;
      }

      .cls-12 {
        fill: #127c35;
      }
    </style>
  </defs>
  <g id="OBJECTS">
    <g>
      <g>
        <path class="cls-12" d="M275.95,1.21c-.44-.7-1.36-.92-2.06-.49-.98.59-23.97,14.82-28.88,38.64-2.72,13.22.74,26.72,10.28,40.15.22.31.54.51.88.59s.72.04,1.06-.13c14.55-7.72,23.7-18.24,27.2-31.27,6.3-23.48-7.87-46.52-8.48-47.49ZM263.27,54.91c-.13.08-.25.05-.37.05-1.59,6.73-3.19,13.45-4.78,20.18-.22.95-1.69.6-1.47-.35,2.74-11.56,5.48-23.13,8.22-34.69-2.08-3.37-4.15-6.73-6.23-10.1-.51-.83.77-1.62,1.28-.79,1.81,2.94,3.63,5.88,5.44,8.81.76-3.23,1.53-6.45,2.29-9.68.22-.95,1.69-.6,1.47.35-1.93,8.13-3.85,16.26-5.78,24.39,3.17-1.95,6.33-3.91,9.5-5.86.83-.51,1.62.77.79,1.28-3.45,2.13-6.91,4.26-10.36,6.39Z"/>
        <path class="cls-10" d="M311.53,81.41c.3-.43.2-1.02-.22-1.33-.59-.43-14.63-10.38-29.8-7.36-8.42,1.68-15.48,7.05-20.99,15.97-.13.21-.17.44-.13.66.04.22.15.43.34.59,8.13,6.62,16.56,9.38,25.07,8.2,15.33-2.12,25.32-16.14,25.74-16.73ZM276.91,87.28c-.08-.06-.09-.13-.12-.2-4.34.73-8.68,1.46-13.02,2.2-.61.1-.77-.84-.16-.95,7.46-1.26,14.92-2.52,22.37-3.78,1.46-2.05,2.92-4.1,4.38-6.15.36-.51,1.14.05.78.56-1.27,1.79-2.55,3.58-3.82,5.37,2.08-.35,4.16-.7,6.24-1.05.61-.1.77.84.16.95-5.24.89-10.49,1.77-15.73,2.66,1.93,1.37,3.86,2.74,5.79,4.12.5.36-.05,1.14-.56.78-2.11-1.5-4.21-2.99-6.32-4.49Z"/>
        <path class="cls-12" d="M124.13,21.25c-.8-.11-1.53.45-1.65,1.24-.16,1.1-3.8,27.21,11,45.71,8.22,10.27,20.5,16.08,36.51,17.29.37.03.72-.08,1-.29.28-.21.48-.51.56-.88,3.27-15.72,1.08-29.13-6.52-39.87-13.69-19.35-39.79-23.06-40.89-23.21ZM156.51,64.19c-.02.15-.11.22-.19.31,4.05,5.38,8.11,10.77,12.16,16.15.57.76-.6,1.64-1.18.88-6.97-9.25-13.94-18.51-20.9-27.76-3.82-.54-7.63-1.08-11.45-1.61-.94-.13-.73-1.59.21-1.46,3.33.47,6.66.94,9.99,1.41-1.94-2.58-3.89-5.16-5.83-7.74-.57-.76.6-1.64,1.18-.88,4.9,6.51,9.8,13.01,14.7,19.52.51-3.59,1.01-7.18,1.52-10.77.13-.94,1.59-.73,1.46.21-.55,3.92-1.1,7.84-1.66,11.75Z"/>
        <path class="cls-10" d="M205.83,21.33c-.25-.59-.92-.88-1.52-.64-.82.33-20.26,8.26-27.09,25.85-3.79,9.76-2.88,20.55,2.69,32.06.13.26.34.46.6.57.25.11.55.13.83.03,12.14-4.03,20.5-10.9,24.85-20.43,7.85-17.16-.02-36.62-.36-37.44Z"/>
        <path class="cls-10" d="M217.1,62.29c-.43.07-.73.47-.67.91.09.6,2.26,14.75,12.85,22.07,5.88,4.06,13.17,5.18,21.7,3.31.2-.04.36-.16.47-.31.11-.15.17-.34.15-.54-.75-8.69-3.98-15.33-9.61-19.73-10.14-7.93-24.3-5.8-24.9-5.7Z"/>
        <path class="cls-10" d="M116.36,99.8c-.32.42-.24,1.02.18,1.34.57.45,14.25,10.89,29.52,8.42,8.48-1.38,15.72-6.49,21.55-15.21.13-.2.18-.43.15-.66-.03-.22-.14-.44-.32-.6-7.89-6.91-16.22-9.96-24.76-9.09-15.39,1.58-25.88,15.22-26.32,15.8ZM151.17,95.17c.08.06.09.14.12.21,4.36-.58,8.72-1.15,13.09-1.73.61-.08.74.87.13.95-7.5.99-15,1.98-22.49,2.97-1.53,2-3.06,4-4.59,5.99-.38.49-1.14-.09-.76-.58,1.34-1.74,2.67-3.49,4.01-5.23-2.09.28-4.18.55-6.27.83-.61.08-.74-.87-.13-.95,5.27-.7,10.54-1.39,15.81-2.09-1.88-1.44-3.76-2.88-5.64-4.32-.49-.38.09-1.14.58-.76,2.05,1.57,4.1,3.14,6.15,4.71Z"/>
        <g>
          <circle class="cls-11" cx="216.2" cy="114.92" r="17.81"/>
          <path class="cls-11" d="M257.69,89.58c-1.17-1.41-3.45-.31-3.09,1.49,5.59,27.95-15.88,40.48-26.75,43.73-3.22.96-6.56,1.43-9.93,1.42h-1.16s-.27,0-.27,0h-.27s0,0,0,0h-1.16c-3.36.01-6.7-.46-9.93-1.42-10.87-3.24-32.34-15.78-26.75-43.73.36-1.8-1.92-2.9-3.09-1.49-8.98,10.87-23.87,33.13,16.52,57.32,3.21,1.92,4.81,5.69,3.99,9.34-4.13,18.44-15.44,71.31-9.48,72.43,5.71,1.07,17.17-31.95,21.7-45.76,1.16-3.54,4.46-5.94,8.18-5.94h.56c3.72,0,7.02,2.4,8.18,5.94,4.53,13.81,15.99,46.83,21.7,45.76,5.95-1.12-5.35-53.99-9.48-72.43-.82-3.65.79-7.42,3.99-9.34,40.39-24.2,25.5-46.46,16.52-57.32Z"/>
        </g>
      </g>
      <g>
        <text class="cls-9" transform="translate(69.49 250.53)"><tspan x="0" y="0">S</tspan><tspan class="cls-15" x="13.38" y="0">E</tspan><tspan x="25.48" y="0">CRE</tspan><tspan class="cls-2" x="69.69" y="0">T</tspan><tspan x="80.7" y="0">ARI</tspan><tspan class="cls-23" x="117" y="0">A</tspan><tspan x="131.94" y="0" xml:space="preserve"> MUNICI</tspan><tspan class="cls-22" x="222.16" y="0">P</tspan><tspan x="234.76" y="0">A</tspan><tspan class="cls-4" x="250.38" y="0">L</tspan><tspan x="261.13" y="0" xml:space="preserve"> DE</tspan></text>
        <text class="cls-10" transform="translate(.51 297.43)"><tspan class="cls-17"><tspan class="cls-5" x="0" y="0">A</tspan><tspan x="42.57" y="0">GRICU</tspan><tspan class="cls-18" x="241.71" y="0">L</tspan><tspan x="268.3" y="0">TU</tspan><tspan class="cls-14" x="348.71" y="0">R</tspan><tspan class="cls-19" x="389" y="0">A</tspan></tspan><tspan class="cls-16"><tspan x="1.43" y="45.47">MEIO</tspan><tspan class="cls-7" x="145.31" y="45.47"> </tspan><tspan x="155.55" y="45.47">AMBIENTE</tspan></tspan><tspan class="cls-3"><tspan x="4.74" y="68.21">DESEN</tspan><tspan class="cls-21" x="65.94" y="68.21">V</tspan><tspan x="78.67" y="68.21">O</tspan><tspan class="cls-13" x="94.27" y="68.21">L</tspan><tspan class="cls-24" x="102.66" y="68.21">VIMEN</tspan><tspan class="cls-6" x="165.19" y="68.21">T</tspan><tspan class="cls-25" x="175.84" y="68.21">O </tspan><tspan class="cls-8" x="195.96" y="68.21">E</tspan><tspan x="206.34" y="68.21">CON</tspan><tspan class="cls-20" x="250.8" y="68.21">Ô</tspan><tspan x="266.26" y="68.21">MICO E</tspan><tspan class="cls-21" x="335.96" y="68.21"> </tspan><tspan x="339.92" y="68.21">TURIS</tspan><tspan class="cls-20" x="394.87" y="68.21">M</tspan><tspan class="cls-1" x="413.21" y="68.21">O</tspan></tspan></text>
      </g>
    </g>
    <g>
      <path class="cls-11" d="M220.26,91.9c0,.18-.57.47-1.29.47h-1.35l-.37.59h.05s.04.02.04.04v.45s-.02.04-.04.04h-.37l-.36.59h.09s.04.02.04.04v.45s-.02.04-.04.04h-.42l-.75,1.21s-.07.06-.12.06h-.32s-.06-.03-.04-.06l.65-1.8h-.05s-.03,0-.04,0-.02-.01-.02-.02c0-.02.03-.03.06-.03h.07l.23-.63v-.28h-.07s-.03,0-.04,0c-.01,0-.02-.01-.02-.02,0-.02.03-.03.06-.03h.07v-.61h-.53c-.37,0-.68-.02-.96-.04l-.77,1.13s-.03.03-.05.03h-.2s-.07-.04-.06-.08l.12-.59h-.04s-.03,0-.04,0c-.01,0-.02-.01-.02-.02,0-.02.03-.03.06-.03h.06l.09-.42h-.05s-.03,0-.04,0c-.01,0-.02-.01-.02-.02,0-.02.03-.03.06-.03h.06l.02-.08c-.3-.07-.49-.16-.59-.22h-.36c-.07,0-.14-.04-.14-.08,0-.02.02-.04.04-.06.03-.01.06-.02.1-.02h.36c.11-.06.29-.14.59-.22l-.02-.08h-.06s-.06-.01-.06-.03c0,0,0-.02.02-.02.01,0,.02,0,.04,0h.05l-.09-.42h-.06s-.06-.01-.06-.03c0,0,0-.02.02-.02.01,0,.02,0,.04,0h.04l-.12-.59s.02-.08.06-.08h.2s.04.01.05.03l.77,1.13c.27-.03.59-.04.96-.04h.53v-.61h-.07s-.06-.01-.06-.03c0,0,0-.02.02-.02.01,0,.02,0,.04,0h.07v-.28l-.23-.63h-.07s-.06-.01-.06-.03c0,0,0-.02.02-.02s.02,0,.04,0h.05l-.65-1.8s.01-.06.04-.06h.32s.09.02.12.06l.75,1.21h.42s.04.02.04.04v.45s-.02.04-.04.04h-.09l.36.59h.37s.04.02.04.04v.45s-.02.04-.04.04h-.05l.37.59h1.35c.72,0,1.29.29,1.29.47Z"/>
      <g>
        <path class="cls-11" d="M235.67,101.54c-.89,0-1.61.72-1.61,1.61,0,1.32,1.14,1.6,1.61,3.26.47-1.66,1.61-1.94,1.61-3.26,0-.89-.72-1.61-1.61-1.61ZM235.67,104.21c-.59,0-1.06-.48-1.06-1.06s.48-1.06,1.06-1.06,1.06.48,1.06,1.06-.48,1.06-1.06,1.06Z"/>
        <circle class="cls-11" cx="235.67" cy="106.72" r=".3"/>
      </g>
      <g>
        <path class="cls-11" d="M196.71,101.26c-.89,0-1.61.72-1.61,1.61,0,1.32,1.14,1.6,1.61,3.26.47-1.66,1.61-1.94,1.61-3.26,0-.89-.72-1.61-1.61-1.61ZM196.71,103.93c-.59,0-1.06-.48-1.06-1.06s.48-1.06,1.06-1.06,1.06.48,1.06,1.06-.48,1.06-1.06,1.06Z"/>
        <circle class="cls-11" cx="196.71" cy="106.44" r=".3"/>
      </g>
      <path class="cls-11" d="M196.82,106.42l-.11-.36s.19-.39.55-1.01l.1.38c-.35.62-.54.99-.54.99ZM235.67,106.41s-.04-.08-.11-.22l.11-.36c.07.15.11.22.11.23l-.11.35ZM234.92,104.99c-.18-.31-.36-.63-.55-.94l.1-.39c.19.32.38.64.56.95l-.1.38ZM198.03,104.3l-.09-.39c.18-.3.38-.6.57-.89l.09.39c-.19.29-.39.59-.57.88ZM233.68,102.98c-.19-.28-.38-.57-.58-.84l.09-.4c.2.28.39.57.58.85l-.09.39ZM199.3,102.41l-.09-.4c.19-.27.39-.54.59-.81l.08.41c-.2.26-.4.53-.59.8ZM232.4,101.18c-.2-.26-.4-.51-.6-.76l.08-.41c.2.25.4.51.6.77l-.08.41ZM200.6,100.69l-.08-.41c.2-.25.4-.49.61-.73l.07.42c-.2.24-.4.48-.6.73ZM231.08,99.55c-.2-.23-.41-.46-.61-.68l.07-.42c.2.22.41.45.61.69l-.07.42ZM201.93,99.14l-.07-.42c.2-.22.41-.44.62-.66l.07.42c-.21.21-.41.43-.61.66ZM229.73,98.09c-.2-.21-.41-.41-.62-.61l.06-.43c.21.2.42.4.63.61l-.07.43ZM203.29,97.74l-.06-.43c.21-.2.42-.4.63-.59l.06.43c-.21.19-.42.39-.63.59ZM228.36,96.79c-.21-.18-.42-.36-.63-.54l.05-.44c.21.17.43.36.64.54l-.06.43ZM204.67,96.49l-.06-.43c.21-.18.42-.35.64-.52l.05.44c-.21.17-.42.34-.63.52ZM226.96,95.66c-.21-.16-.43-.32-.64-.47l.05-.44c.21.15.43.31.64.47l-.05.44ZM206.07,95.39l-.05-.44c.21-.15.43-.31.65-.45l.05.44c-.21.14-.43.29-.64.45ZM225.55,94.67c-.21-.14-.43-.27-.65-.4l.04-.45c.22.13.44.26.65.4l-.04.44ZM207.49,94.45l-.04-.44c.22-.13.43-.26.65-.38l.04.45c-.22.12-.43.25-.65.38ZM224.12,93.84c-.22-.11-.44-.22-.65-.33l.03-.45c.22.1.44.22.66.33l-.04.45ZM208.92,93.65l-.03-.45c.22-.11.44-.22.66-.32l.03.45c-.22.1-.44.2-.65.31ZM222.68,93.16c-.22-.09-.44-.18-.66-.26l.03-.45c.22.08.44.17.66.26l-.03.45ZM210.36,93l-.03-.45c.22-.09.44-.17.66-.25l.02.45c-.22.08-.44.16-.66.25ZM221.23,92.63c-.22-.07-.44-.14-.66-.2l.02-.45c.22.06.44.13.66.2l-.02.45Z"/>
    </g>
  </g>
</svg>