<?xml version="1.0" encoding="UTF-8"?>
<svg xmlns="http://www.w3.org/2000/svg" version="1.1" xmlns:xlink="http://www.w3.org/1999/xlink" viewBox="0 0 500 500">
  <!-- Generator: Adobe Illustrator 29.1.0, SVG Export Plug-In . SVG Version: 2.1.0 Build 142)  -->
  <defs>
    <style>
      .st0 {
        fill: #6b320c;
      }

      .st1 {
        fill: #127c35;
      }

      .st2 {
        font-family: Mont-Regular, Mont;
        font-size: 22px;
      }

      .st2, .st3 {
        fill: #01a83e;
      }

      .st4 {
        fill: #fff;
      }

      .st5 {
        filter: url(#drop-shadow-1);
      }

      .st6 {
        font-size: 52.1px;
      }

      .st6, .st7 {
        font-family: Mont-Heavy, Mont;
        font-weight: 800;
      }

      .st7 {
        font-size: 58.9px;
      }

      .st8 {
        font-family: Mont-Bold, Mont;
        font-size: 18.6px;
        font-weight: 700;
      }
    </style>
    <filter id="drop-shadow-1" x="-9" y="35" width="520" height="451" filterUnits="userSpaceOnUse">
      <feOffset dx="1" dy="1"/>
      <feGaussianBlur result="blur" stdDeviation="7"/>
      <feFlood flood-color="#000" flood-opacity=".3"/>
      <feComposite in2="blur" operator="in"/>
      <feComposite in="SourceGraphic"/>
    </filter>
  </defs>
  <g id="Camada_2" class="st5">
    <rect class="st4" x="11.8" y="55.7" width="476.3" height="407.5" rx="70.5" ry="70.5"/>
  </g>
  <g id="OBJECTS">
    <g>
      <g>
        <path class="st1" d="M308.6,69.1c-.4-.7-1.3-.9-2-.5-1,.6-23.6,14.6-28.4,38-2.7,13,.7,26.3,10.1,39.5.2.3.5.5.9.6s.7,0,1-.1c14.3-7.6,23.3-17.9,26.7-30.7,6.2-23.1-7.7-45.7-8.3-46.7ZM296.1,121.9c-.1,0-.2,0-.4,0-1.6,6.6-3.1,13.2-4.7,19.8-.2.9-1.7.6-1.4-.3,2.7-11.4,5.4-22.7,8.1-34.1-2-3.3-4.1-6.6-6.1-9.9-.5-.8.8-1.6,1.3-.8,1.8,2.9,3.6,5.8,5.3,8.7.8-3.2,1.5-6.3,2.3-9.5.2-.9,1.7-.6,1.4.3-1.9,8-3.8,16-5.7,24,3.1-1.9,6.2-3.8,9.3-5.8.8-.5,1.6.8.8,1.3-3.4,2.1-6.8,4.2-10.2,6.3Z"/>
        <path class="st3" d="M343.6,148c.3-.4.2-1-.2-1.3-.6-.4-14.4-10.2-29.3-7.2-8.3,1.6-15.2,6.9-20.6,15.7-.1.2-.2.4-.1.7,0,.2.2.4.3.6,8,6.5,16.3,9.2,24.6,8.1,15.1-2.1,24.9-15.9,25.3-16.4ZM309.5,153.7c0,0,0-.1-.1-.2-4.3.7-8.5,1.4-12.8,2.2-.6.1-.8-.8-.2-.9,7.3-1.2,14.7-2.5,22-3.7,1.4-2,2.9-4,4.3-6,.4-.5,1.1,0,.8.5-1.3,1.8-2.5,3.5-3.8,5.3,2-.3,4.1-.7,6.1-1,.6-.1.8.8.2.9-5.2.9-10.3,1.7-15.5,2.6,1.9,1.3,3.8,2.7,5.7,4,.5.4,0,1.1-.5.8-2.1-1.5-4.1-2.9-6.2-4.4Z"/>
        <path class="st1" d="M159.4,88.8c-.8-.1-1.5.4-1.6,1.2-.2,1.1-3.7,26.7,10.8,44.9,8.1,10.1,20.2,15.8,35.9,17,.4,0,.7,0,1-.3.3-.2.5-.5.5-.9,3.2-15.5,1.1-28.6-6.4-39.2-13.5-19-39.1-22.7-40.2-22.8ZM191.2,131c0,.1-.1.2-.2.3,4,5.3,8,10.6,12,15.9.6.7-.6,1.6-1.2.9-6.8-9.1-13.7-18.2-20.5-27.3-3.8-.5-7.5-1.1-11.3-1.6-.9-.1-.7-1.6.2-1.4,3.3.5,6.5.9,9.8,1.4-1.9-2.5-3.8-5.1-5.7-7.6-.6-.7.6-1.6,1.2-.9,4.8,6.4,9.6,12.8,14.4,19.2.5-3.5,1-7.1,1.5-10.6.1-.9,1.6-.7,1.4.2-.5,3.9-1.1,7.7-1.6,11.6Z"/>
        <path class="st3" d="M239.7,88.9c-.2-.6-.9-.9-1.5-.6-.8.3-19.9,8.1-26.6,25.4-3.7,9.6-2.8,20.2,2.6,31.5.1.3.3.5.6.6.3.1.5.1.8,0,11.9-4,20.1-10.7,24.4-20.1,7.7-16.9,0-36-.4-36.8Z"/>
        <path class="st3" d="M250.7,129.2c-.4,0-.7.5-.7.9,0,.6,2.2,14.5,12.6,21.7,5.8,4,13,5.1,21.3,3.3.2,0,.4-.2.5-.3.1-.1.2-.3.2-.5-.7-8.5-3.9-15.1-9.4-19.4-10-7.8-23.9-5.7-24.5-5.6Z"/>
        <path class="st3" d="M151.7,166c-.3.4-.2,1,.2,1.3.6.4,14,10.7,29,8.3,8.3-1.4,15.5-6.4,21.2-15,.1-.2.2-.4.2-.6,0-.2-.1-.4-.3-.6-7.8-6.8-15.9-9.8-24.3-8.9-15.1,1.5-25.4,15-25.9,15.5ZM185.9,161.5c0,0,0,.1.1.2,4.3-.6,8.6-1.1,12.9-1.7.6,0,.7.9.1.9-7.4,1-14.7,1.9-22.1,2.9-1.5,2-3,3.9-4.5,5.9-.4.5-1.1,0-.7-.6,1.3-1.7,2.6-3.4,3.9-5.1-2.1.3-4.1.5-6.2.8-.6,0-.7-.9-.1-.9,5.2-.7,10.4-1.4,15.5-2.1-1.8-1.4-3.7-2.8-5.5-4.2-.5-.4,0-1.1.6-.7,2,1.5,4,3.1,6,4.6Z"/>
        <g>
          <circle class="st0" cx="249.9" cy="180.9" r="17.5"/>
          <path class="st0" d="M290.6,156c-1.1-1.4-3.4-.3-3,1.5,5.5,27.5-15.6,39.8-26.3,43-3.2.9-6.4,1.4-9.8,1.4h-1.1s-.3,0-.3,0h-.3s0,0,0,0h-1.1c-3.3,0-6.6-.4-9.8-1.4-10.7-3.2-31.8-15.5-26.3-43,.4-1.8-1.9-2.9-3-1.5-8.8,10.7-23.5,32.6,16.2,56.3,3.2,1.9,4.7,5.6,3.9,9.2-4.1,18.1-15.2,70.1-9.3,71.2,5.6,1.1,16.9-31.4,21.3-45,1.1-3.5,4.4-5.8,8-5.8h.6c3.7,0,6.9,2.4,8,5.8,4.4,13.6,15.7,46,21.3,45,5.9-1.1-5.3-53.1-9.3-71.2-.8-3.6.8-7.3,3.9-9.2,39.7-23.8,25.1-45.7,16.2-56.3Z"/>
        </g>
      </g>
      <g>
        <text class="st2" transform="translate(105.7 314.2)"><tspan x="0" y="0">SECRETARIA MUNICIPAL DE</tspan></text>
        <text class="st3" transform="translate(34.2 360.3)"><tspan class="st7"><tspan x="0" y="0">AGRICULTURA</tspan></tspan><tspan class="st6"><tspan x="4.4" y="44.7">MEIO AMBIENTE</tspan></tspan><tspan class="st8"><tspan x="6.5" y="67">DESENVOLVIMENTO ECONÔMICO E TURISMO</tspan></tspan></text>
      </g>
    </g>
    <g>
      <path class="st0" d="M253.9,158.3c0,.2-.6.5-1.3.5h-1.3l-.4.6h0s0,0,0,0v.4s0,0,0,0h-.4l-.4.6h0s0,0,0,0v.4s0,0,0,0h-.4l-.7,1.2s0,0-.1,0h-.3s0,0,0,0l.6-1.8h0s0,0,0,0,0,0,0,0c0,0,0,0,0,0h0l.2-.6v-.3h0s0,0,0,0c0,0,0,0,0,0,0,0,0,0,0,0h0v-.6h-.5c-.4,0-.7,0-.9,0l-.8,1.1s0,0,0,0h-.2s0,0,0,0v-.6c.1,0,0,0,0,0,0,0,0,0,0,0,0,0,0,0,0,0,0,0,0,0,0,0h0v-.4c0,0,0,0,0,0,0,0,0,0,0,0,0,0,0,0,0,0,0,0,0,0,0,0h0c-.3-.2-.5-.2-.6-.3h-.4c0,0-.1,0-.1,0s0,0,0,0c0,0,0,0,0,0h.4c.1,0,.3-.1.6-.2h0c0,0,0,0,0,0,0,0,0,0,0,0s0,0,0,0c0,0,0,0,0,0h0v-.4h-.1s0,0,0,0,0,0,0,0c0,0,0,0,0,0h0v-.6c-.1,0-.1,0,0,0h.2s0,0,0,0l.8,1.1c.3,0,.6,0,.9,0h.5v-.6h0s0,0,0,0,0,0,0,0c0,0,0,0,0,0h0v-.3l-.2-.6h0s0,0,0,0,0,0,0,0,0,0,0,0h0l-.6-1.8s0,0,0,0h.3s0,0,.1,0l.7,1.2h.4s0,0,0,0v.4s0,0,0,0h0l.4.6h.4s0,0,0,0v.4s0,0,0,0h0l.4.6h1.3c.7,0,1.3.3,1.3.5Z"/>
      <g>
        <path class="st0" d="M269,167.7c-.9,0-1.6.7-1.6,1.6,0,1.3,1.1,1.6,1.6,3.2.5-1.6,1.6-1.9,1.6-3.2s-.7-1.6-1.6-1.6ZM269,170.4c-.6,0-1-.5-1-1s.5-1,1-1,1,.5,1,1-.5,1-1,1Z"/>
        <circle class="st0" cx="269" cy="172.8" r=".3"/>
      </g>
      <g>
        <path class="st0" d="M230.7,167.5c-.9,0-1.6.7-1.6,1.6,0,1.3,1.1,1.6,1.6,3.2.5-1.6,1.6-1.9,1.6-3.2s-.7-1.6-1.6-1.6ZM230.7,170.1c-.6,0-1-.5-1-1s.5-1,1-1,1,.5,1,1-.5,1-1,1Z"/>
        <circle class="st0" cx="230.7" cy="172.6" r=".3"/>
      </g>
      <path class="st0" d="M230.8,172.5v-.4c-.1,0,0-.4.4-1v.4c-.2.6-.4,1-.4,1ZM269,172.5s0,0-.1-.2v-.4c.2.1.2.2.2.2v.3ZM268.3,171.1c-.2-.3-.4-.6-.5-.9v-.4c.3.3.5.6.6.9v.4ZM232,170.5v-.4c0-.3.3-.6.5-.9v.4c-.1.3-.3.6-.5.9ZM267.1,169.2c-.2-.3-.4-.6-.6-.8v-.4c.3.3.5.6.7.8v.4ZM233.3,168.6v-.4c.1-.3.3-.5.5-.8v.4c-.1.3-.3.5-.5.8ZM265.8,167.4c-.2-.3-.4-.5-.6-.7v-.4c.3.2.5.5.7.8v.4ZM234.5,166.9v-.4c.1-.2.3-.5.5-.7v.4c-.1.2-.3.5-.5.7ZM264.5,165.8c-.2-.2-.4-.5-.6-.7v-.4c.3.2.5.4.7.7v.4ZM235.8,165.4v-.4c.1-.2.3-.4.5-.6v.4c-.1.2-.3.4-.5.6ZM263.2,164.4c-.2-.2-.4-.4-.6-.6v-.4c.3.2.5.4.7.6v.4ZM237.2,164v-.4c.1-.2.4-.4.6-.6v.4c-.1.2-.4.4-.6.6ZM261.8,163.1c-.2-.2-.4-.4-.6-.5v-.4c.3.2.5.3.7.5v.4ZM238.5,162.8v-.4c.2-.2.4-.3.6-.5v.4c-.2.2-.4.3-.6.5ZM260.4,162c-.2-.2-.4-.3-.6-.5v-.4c.3.1.5.3.7.5v.4ZM239.9,161.7v-.4c.2-.2.4-.3.6-.4v.4c-.2.1-.4.3-.6.4ZM259.1,161c-.2-.1-.4-.3-.6-.4v-.4c.3.1.5.3.7.4v.4ZM241.3,160.8v-.4c.2-.1.4-.3.6-.4v.4c-.2.1-.4.2-.6.4ZM257.7,160.2c-.2-.1-.4-.2-.6-.3v-.4c.2.1.5.2.7.3v.4ZM242.7,160v-.4c.2-.1.4-.2.6-.3v.4c-.2,0-.4.2-.6.3ZM256.2,159.5c-.2,0-.4-.2-.6-.3v-.4c.2,0,.5.2.7.3v.4ZM244.1,159.3v-.4c.2,0,.4-.2.6-.2v.4c-.2,0-.4.2-.6.2ZM254.8,159c-.2,0-.4-.1-.6-.2v-.4c.2,0,.5.1.7.2v.4Z"/>
    </g>
  </g>
</svg>